<svg width="32" height="32" viewBox="0 0 32 32" fill="none" xmlns="http://www.w3.org/2000/svg">
  <defs>
    <linearGradient id="gradient" x1="0%" y1="0%" x2="100%" y2="0%">
      <stop offset="0%" style="stop-color:#00D4FF;stop-opacity:1" />
      <stop offset="50%" style="stop-color:#5B73FF;stop-opacity:1" />
      <stop offset="100%" style="stop-color:#9333EA;stop-opacity:1" />
    </linearGradient>
  </defs>
  
  <!-- Left curly brace -->
  <path d="M4 8C4 6.89543 4.89543 6 6 6H8C8.55228 6 9 6.44772 9 7C9 7.55228 8.55228 8 8 8H6V12C6 13.1046 5.10457 14 4 14C2.89543 14 2 14.8954 2 16C2 17.1046 2.89543 18 4 18C5.10457 18 6 18.8954 6 20V24H8C8.55228 24 9 24.4477 9 25C9 25.5523 8.55228 26 8 26H6C4.89543 26 4 25.1046 4 24V20C4 19.4477 3.55228 19 3 19H2C1.44772 19 1 18.5523 1 18V14C1 13.4477 1.44772 13 2 13H3C3.55228 13 4 12.5523 4 12V8Z" fill="url(#gradient)"/>
  
  <!-- Right curly brace -->
  <path d="M28 8C28 6.89543 27.1046 6 26 6H24C23.4477 6 23 6.44772 23 7C23 7.55228 23.4477 8 24 8H26V12C26 13.1046 26.8954 14 28 14C29.1046 14 30 14.8954 30 16C30 17.1046 29.1046 18 28 18C26.8954 18 26 18.8954 26 20V24H24C23.4477 24 23 24.4477 23 25C23 25.5523 23.4477 26 24 26H26C27.1046 26 28 25.1046 28 24V20C28 19.4477 28.4477 19 29 19H30C30.5523 19 31 18.5523 31 18V14C31 13.4477 30.5523 13 30 13H29C28.4477 13 28 12.5523 28 12V8Z" fill="url(#gradient)"/>
  
  <!-- Center sparkle -->
  <circle cx="16" cy="16" r="1.5" fill="white" opacity="0.8"/>
  <path d="M16 12L16.5 15.5L20 16L16.5 16.5L16 20L15.5 16.5L12 16L15.5 15.5L16 12Z" fill="white" opacity="0.6"/>
</svg>